HIERARCHY
ROOT hip
{
  OFFSET 0 0 0
  CHANNELS 6 Xposition Yposition Zposition Zrotation Yrotation Xrotation
  JOINT abdomen
  {
    OFFSET 0 20.6881 -0.73152
    CHANNELS 3 Zrotation Xrotation Yrotation
    JOINT chest
    {
      OFFSET 0 11.7043 -0.48768
      CHANNELS 3 Zrotation Xrotation Yrotation
      JOINT neck
      {
        OFFSET 0 22.1894 -2.19456
        CHANNELS 3 Zrotation Xrotation Yrotation
        JOINT head
        {
          OFFSET -0.24384 7.07133 1.2192
          CHANNELS 3 Zrotation Xrotation Yrotation
          JOINT leftEye
          {
            OFFSET 4.14528 8.04674 8.04672
            CHANNELS 3 Zrotation Xrotation Yrotation
            End Site
            {
              OFFSET 1 0 0
            }
          }
          JOINT rightEye
          {
            OFFSET -3.6576 8.04674 8.04672
            CHANNELS 3 Zrotation Xrotation Yrotation
            End Site
            {
              OFFSET 1 0 0
            }
          }
        }
      }
      JOINT rCollar
      {
        OFFSET -2.68224 19.2634 -4.8768
        CHANNELS 3 Zrotation Xrotation Yrotation
        JOINT rShldr
        {
          OFFSET -8.77824 -1.95073 1.46304
          CHANNELS 3 Zrotation Xrotation Yrotation
          JOINT rForeArm
          {
            OFFSET -28.1742 -1.7115 0.48768
            CHANNELS 3 Zrotation Xrotation Yrotation
            JOINT rHand
            {
              OFFSET -22.5879 0.773209 7.07136
              CHANNELS 3 Zrotation Xrotation Yrotation
              JOINT rThumb1
              {
                OFFSET -1.2192 -0.487915 3.41376
                CHANNELS 3 Zrotation Xrotation Yrotation
                JOINT rThumb2
                {
                  OFFSET -3.37035 -0.52449 3.41376
                  CHANNELS 3 Zrotation Xrotation Yrotation
                  End Site
                  {
                    OFFSET -1.78271 -1.18214 1.43049
                  }
                }
              }
              JOINT rIndex1
              {
                OFFSET -7.75947 0.938293 5.60832
                CHANNELS 3 Zrotation Xrotation Yrotation
                JOINT rIndex2
                {
                  OFFSET -2.54057 -0.884171 1.56538
                  CHANNELS 3 Zrotation Xrotation Yrotation
                  End Site
                  {
                    OFFSET -1.62519 -0.234802 1.16502
                  }
                }
              }
              JOINT rMid1
              {
                OFFSET -8.24714 1.18213 3.41376
                CHANNELS 3 Zrotation Xrotation Yrotation
                JOINT rMid2
                {
                  OFFSET -3.10165 -0.590103 1.0647
                  CHANNELS 3 Zrotation Xrotation Yrotation
                  End Site
                  {
                    OFFSET -2.48547 -0.328903 0.83742
                  }
                }
              }
              JOINT rRing1
              {
                OFFSET -8.82822 0.546677 1.51678
                CHANNELS 3 Zrotation Xrotation Yrotation
                JOINT rRing2
                {
                  OFFSET -2.60934 -0.819778 -0.0198488
                  CHANNELS 3 Zrotation Xrotation Yrotation
                  End Site
                  {
                    OFFSET -2.33842 -0.294052 0.168128
                  }
                }
              }
              JOINT rPinky1
              {
                OFFSET -8.27202 -0.0477905 -0.4584
                CHANNELS 3 Zrotation Xrotation Yrotation
                JOINT rPinky2
                {
                  OFFSET -1.82734 -0.647385 -0.700984
                  CHANNELS 3 Zrotation Xrotation Yrotation
                  End Site
                  {
                    OFFSET -1.69225 -0.51767 -0.607171
                  }
                }
              }
            }
          }
        }
      }
      JOINT lCollar
      {
        OFFSET 2.68224 19.2634 -4.8768
        CHANNELS 3 Zrotation Xrotation Yrotation
        JOINT lShldr
        {
          OFFSET 8.77824 -1.95073 1.46304
          CHANNELS 3 Zrotation Xrotation Yrotation
          JOINT lForeArm
          {
            OFFSET 28.1742 -1.7115 0.48768
            CHANNELS 3 Zrotation Xrotation Yrotation
            JOINT lHand
            {
              OFFSET 22.5879 0.773209 7.07136
              CHANNELS 3 Zrotation Xrotation Yrotation
              JOINT lThumb1
              {
                OFFSET 1.2192 -0.487915 3.41376
                CHANNELS 3 Zrotation Xrotation Yrotation
                JOINT lThumb2
                {
                  OFFSET 3.37035 -0.52449 3.41376
                  CHANNELS 3 Zrotation Xrotation Yrotation
                  End Site
                  {
                    OFFSET 1.78271 -1.18214 1.43049
                  }
                }
              }
              JOINT lIndex1
              {
                OFFSET 7.75947 0.938293 5.60832
                CHANNELS 3 Zrotation Xrotation Yrotation
                JOINT lIndex2
                {
                  OFFSET 2.54057 -0.884171 1.56538
                  CHANNELS 3 Zrotation Xrotation Yrotation
                  End Site
                  {
                    OFFSET 1.62519 -0.234802 1.16502
                  }
                }
              }
              JOINT lMid1
              {
                OFFSET 8.24714 1.18213 3.41376
                CHANNELS 3 Zrotation Xrotation Yrotation
                JOINT lMid2
                {
                  OFFSET 3.10165 -0.590103 1.0647
                  CHANNELS 3 Zrotation Xrotation Yrotation
                  End Site
                  {
                    OFFSET 2.48547 -0.328903 0.83742
                  }
                }
              }
              JOINT lRing1
              {
                OFFSET 8.82822 0.546677 1.51678
                CHANNELS 3 Zrotation Xrotation Yrotation
                JOINT lRing2
                {
                  OFFSET 2.60934 -0.819778 -0.0198488
                  CHANNELS 3 Zrotation Xrotation Yrotation
                  End Site
                  {
                    OFFSET 2.33842 -0.294052 0.168128
                  }
                }
              }
              JOINT lPinky1
              {
                OFFSET 8.27202 -0.0477905 -0.4584
                CHANNELS 3 Zrotation Xrotation Yrotation
                JOINT lPinky2
                {
                  OFFSET 1.82734 -0.647385 -0.700984
                  CHANNELS 3 Zrotation Xrotation Yrotation
                  End Site
                  {
                    OFFSET 1.69225 -0.51767 -0.607171
                  }
                }
              }
            }
          }
        }
      }
    }
  }
  JOINT rButtock
  {
    OFFSET -8.77824 4.35084 1.2192
    CHANNELS 3 Zrotation Xrotation Yrotation
    JOINT rThigh
    {
      OFFSET 0 -1.70687 -2.19456
      CHANNELS 3 Zrotation Xrotation Yrotation
      JOINT rShin
      {
        OFFSET 0 -36.8199 0.73152
        CHANNELS 3 Zrotation Xrotation Yrotation
        JOINT rFoot
        {
          OFFSET 0.73152 -45.1104 -5.12064
          CHANNELS 3 Zrotation Xrotation Yrotation
          End Site
          {
            OFFSET -1.1221 -3.69964 12.103
          }
        }
      }
    }
  }
  JOINT lButtock
  {
    OFFSET 8.77824 4.35084 1.2192
    CHANNELS 3 Zrotation Xrotation Yrotation
    JOINT lThigh
    {
      OFFSET 0 -1.70687 -2.19456
      CHANNELS 3 Zrotation Xrotation Yrotation
      JOINT lShin
      {
        OFFSET 0 -36.8199 0.73152
        CHANNELS 3 Zrotation Xrotation Yrotation
        JOINT lFoot
        {
          OFFSET -0.73152 -45.1104 -5.12064
          CHANNELS 3 Zrotation Xrotation Yrotation
          End Site
          {
            OFFSET 1.1221 -3.69964 12.103
          }
        }
      }
    }
  }
}
MOTION
Frames:	7
Frame Time:	0.00833333
56.4123 85.1388 64.3237 0.0 0.0 0.0 0.410589 -0.00336424 0.0117806 0.113459 -0.00539519 0.0196593 3.6068e-15 0.0 -1.86361e-17 1.0781e-14 3.18055e-15 -5.28022e-17 -0.0 0.0 0.0 -0.0 0.0 0.0 1.88722e-15 6.0179e-18 1.98785e-16 3.8545e-14 1.18028e-16 5.96354e-16 6.53306e-13 -1.88249e-13 -1.59028e-14 7.45131e-12 2.24627e-13 -1.90833e-14 1.75816e-11 7.74933e-14 -3.49861e-14 3.03536e-11 1.36764e-13 -6.36111e-14 1.75885e-11 8.0309e-14 -4.13472e-14 7.73091 5.47488 0.417314 1.75831e-11 7.76254e-14 -3.49861e-14 2.90554 0.965183 0.102902 1.75841e-11 7.74266e-14 -3.73715e-14 10.2786 0.731801 0.0259123 1.75718e-11 8.11041e-14 -3.18055e-14 2.22167 -0.733487 -0.20892 1.69102e-15 5.82377e-18 -1.98785e-16 3.66249e-14 5.09386e-16 -5.96354e-16 6.45653e-13 2.03953e-13 6.36111e-15 7.45857e-12 -1.53089e-13 -9.54166e-15 1.75846e-11 1.08184e-13 -3.81667e-14 3.03822e-11 1.84472e-13 -5.725e-14 1.75773e-11 1.09729e-13 -1.90833e-14 -7.73091 5.47488 -0.417314 1.75844e-11 1.08238e-13 -4.13472e-14 -2.90554 0.965183 -0.102902 1.75758e-11 1.08238e-13 -3.65764e-14 -10.2786 0.731801 -0.0259123 1.75905e-11 1.10127e-13 -4.13472e-14 -2.22167 -0.733487 0.20892 -2.03217e-16 0.0 -3.88251e-19 0.770612 -4.17183 -0.0656818 -0.00265492 2.00555 -0.0182708 -0.461837 2.16687 0.0961019 2.03217e-16 0.0 3.88251e-19 -0.143227 -2.55995 0.0260683 0.00716315 -0.91409 0.0621714 0.453766 3.47457 -0.121224
56.6621 83.4978 58.7762 177.958 -2.1748 -152.679 -1.01499 -8.69561 -0.649773 0.618504 3.23851 -0.294412 -1.01696 4.41733 0.114877 2.48477 -5.55708 0.462168 -0.0 0.0 0.0 -0.0 0.0 0.0 1.73027e-15 8.14309e-14 1.21301e-14 22.7535 2.28505 -0.774557 -4.89264 -2.375 7.47099 -0.000378201 0.00159236 0.000214501 -5.16368e-10 9.38711e-10 -6.33203e-10 -8.94206e-10 1.62372e-09 -1.09471e-09 -5.16363e-10 9.38713e-10 -6.33209e-10 7.73091 5.47488 0.417314 -5.16368e-10 9.38712e-10 -6.33203e-10 2.90554 0.965183 0.102902 -5.16366e-10 9.38712e-10 -6.33206e-10 10.2786 0.731801 0.0259123 -5.16376e-10 9.38715e-10 -6.33199e-10 2.22167 -0.733487 -0.20892 1.55055e-15 8.1432e-14 1.17291e-14 -21.6988 6.21854 -0.994652 3.15604 -1.27165 -5.09261 -0.00323239 1.26671 -0.177869 -6.59229e-10 6.53923e-11 7.75352e-10 -1.13567e-09 1.15643e-10 1.34375e-09 -6.59236e-10 6.53939e-11 7.75367e-10 -7.73091 5.47488 -0.417314 -6.59229e-10 6.53924e-11 7.75348e-10 -2.90554 0.965183 -0.102902 -6.59236e-10 6.53926e-11 7.75352e-10 -10.2786 0.731801 -0.0259123 -6.59222e-10 6.53942e-11 7.75347e-10 -2.22167 -0.733487 0.20892 -2.03217e-16 0.0 -3.88251e-19 0.122238 -11.1372 1.9536 0.000532025 3.63032 0.0314838 -0.5907 -2.41965 -1.55226 2.03217e-16 0.0 3.88251e-19 0.0391479 -10.0212 -3.04692 0.00821062 1.1856 0.0260095 0.484735 1.83983 0.760635
56.6411 83.4936 58.7529 177.857 -2.1433 -152.648 -2.75036 -17.879 -1.40083 1.19107 6.66139 -0.629705 -2.11278 9.09017 0.238423 5.20562 -11.4298 0.963821 -0.0 0.0 0.0 -0.0 0.0 0.0 2.40166e-15 1.74733e-13 2.68142e-14 46.88 4.66259 -1.60706 -9.37445 -4.73253 15.3765 -0.00103289 0.053017 0.00742625 -1.13279e-09 2.02876e-09 -1.34683e-09 -1.96151e-09 3.50919e-09 -2.32849e-09 -1.13278e-09 2.02876e-09 -1.34683e-09 7.73091 5.47488 0.417314 -1.13279e-09 2.02876e-09 -1.34683e-09 2.90554 0.965183 0.102902 -1.13278e-09 2.02876e-09 -1.34683e-09 10.2786 0.731801 0.0259123 -1.13279e-09 2.02876e-09 -1.34683e-09 2.22167 -0.733487 -0.20892 2.23885e-15 1.74736e-13 2.64073e-14 -44.3992 12.7731 -2.07301 6.22496 -2.56845 -10.4486 0.00194879 2.61939 -0.368109 -1.43734e-09 1.31748e-10 1.65804e-09 -2.47629e-09 2.33323e-10 2.87353e-09 -1.43734e-09 1.3175e-10 1.65806e-09 -7.73091 5.47488 -0.417314 -1.43734e-09 1.31748e-10 1.65804e-09 -2.90554 0.965183 -0.102902 -1.43734e-09 1.31748e-10 1.65804e-09 -10.2786 0.731801 -0.0259123 -1.43733e-09 1.3175e-10 1.65804e-09 -2.22167 -0.733487 0.20892 -2.03217e-16 0.0 -3.88251e-19 -0.00505282 -18.4732 4.22579 0.000929256 5.34936 0.084287 -1.01511 -7.25324 -3.31667 2.03217e-16 0.0 3.88251e-19 -0.677705 -17.8344 -6.51256 0.0123186 3.40468 -0.0122222 0.572133 0.113711 1.69102
56.6491 83.4952 58.703 177.897 -2.1033 -152.66 -4.52591 -26.0655 -2.17141 1.73659 9.72518 -0.934575 -3.10525 13.2518 0.353007 7.73326 -16.6668 1.44052 -0.0 0.0 0.0 -0.0 0.0 0.0 1.41637e-15 2.44281e-13 3.59928e-14 68.447 6.85013 -2.33853 -12.862 -6.64149 22.5532 -0.00113464 0.00477707 0.000643504 -1.58427e-09 2.81598e-09 -1.89954e-09 -2.74333e-09 4.87088e-09 -3.28401e-09 -1.58427e-09 2.81598e-09 -1.89954e-09 7.73091 5.47488 0.417314 -1.58427e-09 2.81598e-09 -1.89954e-09 2.90554 0.965183 0.102902 -1.58427e-09 2.81598e-09 -1.89954e-09 10.2786 0.731801 0.0259123 -1.58427e-09 2.81598e-09 -1.89953e-09 2.22167 -0.733487 -0.20892 1.26961e-15 2.44284e-13 3.55848e-14 -64.4187 18.6325 -3.13063 8.79768 -3.69457 -15.3066 0.013941 3.79998 -0.534653 -2.01286e-09 1.95961e-10 2.32613e-09 -3.46778e-09 3.46561e-10 4.03135e-09 -2.01286e-09 1.95962e-10 2.32614e-09 -7.73091 5.47488 -0.417314 -2.01286e-09 1.95961e-10 2.32613e-09 -2.90554 0.965183 -0.102902 -2.01286e-09 1.95961e-10 2.32613e-09 -10.2786 0.731801 -0.0259123 -2.01285e-09 1.95962e-10 2.32612e-09 -2.22167 -0.733487 0.20892 -2.03217e-16 0.0 -3.88251e-19 0.429901 -24.9457 6.48901 -0.00161434 6.87986 0.13173 -1.65183 -11.5534 -4.94514 2.03217e-16 0.0 3.88251e-19 -2.19547 -24.6533 -9.97007 0.0182695 5.38497 -0.0465203 0.697552 -1.42781 2.52352
56.6617 83.4961 58.6633 177.954 -2.0946 -152.601 -5.9195 -31.7734 -2.80442 2.13813 11.8923 -1.152 -3.80061 16.1355 0.437224 9.57916 -20.3185 1.80399 -0.0 0.0 0.0 -0.0 0.0 0.0 -3.71061e-15 2.54442e-13 3.1408e-14 83.4845 8.56753 -2.80394 -15.0926 -7.87079 27.7795 -0.000105025 -0.292624 -0.041126 -1.62341e-09 2.84614e-09 -2.04996e-09 -2.81144e-09 4.92312e-09 -3.54387e-09 -1.62341e-09 2.84614e-09 -2.04996e-09 7.73091 5.47488 0.417314 -1.62341e-09 2.84614e-09 -2.04996e-09 2.90554 0.965183 0.102902 -1.62341e-09 2.84615e-09 -2.04996e-09 10.2786 0.731801 0.0259123 -1.62341e-09 2.84615e-09 -2.04995e-09 2.22167 -0.733487 -0.20892 -3.84348e-15 2.54446e-13 3.10104e-14 -78.2074 22.7744 -4.00317 10.5803 -4.50155 -18.8942 0.0254638 4.55048 -0.64089 -2.0819e-09 2.54816e-10 2.45771e-09 -3.58645e-09 4.48697e-10 4.25927e-09 -2.08191e-09 2.54818e-10 2.45771e-09 -7.73091 5.47488 -0.417314 -2.0819e-09 2.54817e-10 2.4577e-09 -2.90554 0.965183 -0.102902 -2.08191e-09 2.54817e-10 2.45771e-09 -10.2786 0.731801 -0.0259123 -2.08189e-09 2.54818e-10 2.4577e-09 -2.22167 -0.733487 0.20892 -2.03217e-16 0.0 -3.88251e-19 1.09881 -29.3708 8.28293 -0.00547321 7.93903 0.16513 -2.25096 -14.5585 -6.13547 2.03217e-16 0.0 3.88251e-19 -3.81215 -29.2571 -12.6914 0.0232139 6.76826 -0.0706968 0.812132 -2.51025 3.10981
56.6622 83.4995 58.5827 177.955 -2.0559 -152.63 -6.51078 -34.0203 -3.0948 2.30675 12.8104 -1.24037 -4.06238 17.2238 0.473459 10.3738 -21.7515 1.97203 -0.0 0.0 0.0 -0.0 0.0 0.0 -1.92523e-14 1.62529e-13 1.32976e-15 89.3064 9.65878 -2.87932 -16.0711 -8.4531 30.2075 0.000667772 -0.963635 -0.1354 -9.41284e-10 1.55281e-09 -1.52561e-09 -1.63135e-09 2.68627e-09 -2.63672e-09 -9.41285e-10 1.55281e-09 -1.52562e-09 7.73091 5.47488 0.417314 -9.41288e-10 1.55281e-09 -1.52561e-09 2.90554 0.965183 0.102902 -9.41283e-10 1.55281e-09 -1.52561e-09 10.2786 0.731801 0.0259123 -9.41288e-10 1.55281e-09 -1.5256e-09 2.22167 -0.733487 -0.20892 -1.93761e-14 1.62532e-13 9.60147e-16 -83.5127 24.5139 -4.52396 11.4508 -4.93532 -20.6897 0.0290944 4.71427 -0.664156 -1.26374e-09 3.28201e-10 1.67732e-09 -2.176e-09 5.72795e-10 2.90642e-09 -1.26375e-09 3.28201e-10 1.67733e-09 -7.73091 5.47488 -0.417314 -1.26374e-09 3.28201e-10 1.67732e-09 -2.90554 0.965183 -0.102902 -1.26375e-09 3.282e-10 1.67732e-09 -10.2786 0.731801 -0.0259123 -1.26374e-09 3.28201e-10 1.67732e-09 -2.22167 -0.733487 0.20892 -2.03217e-16 0.0 -3.88251e-19 1.4791 -31.0068 9.08917 -0.00877424 8.33226 0.178403 -2.53255 -15.7844 -6.63446 2.03217e-16 0.0 3.88251e-19 -4.57843 -30.9654 -13.8493 0.0240632 7.32144 -0.0805204 0.863885 -2.95372 3.34419
56.6611 83.5026 58.475 177.951 -1.992 -152.708 -6.45105 -33.7989 -3.08697 2.30028 12.8362 -1.23396 -4.00992 17.03 0.473659 10.3921 -21.6008 1.98831 -0.0 0.0 0.0 -0.0 0.0 0.0 -4.20133e-14 -1.39324e-15 -4.66616e-14 88.5285 10.3024 -2.67284 -16.2772 -8.67195 30.6173 -0.00191598 -1.90032 -0.267108 2.49167e-10 -6.73339e-10 -5.24592e-10 4.28442e-10 -1.16392e-09 -9.05185e-10 2.49167e-10 -6.73338e-10 -5.24603e-10 7.73091 5.47488 0.417314 2.49164e-10 -6.73339e-10 -5.2459e-10 2.90554 0.965183 0.102902 2.49172e-10 -6.73337e-10 -5.24591e-10 10.2786 0.731801 0.0259123 2.49164e-10 -6.73338e-10 -5.24587e-10 2.22167 -0.733487 -0.20892 -4.21313e-14 -1.39103e-15 -4.69908e-14 -82.8286 24.5437 -4.75659 11.7201 -5.12797 -21.1998 0.0259156 4.45825 -0.62792 1.79649e-10 4.10914e-10 2.53195e-10 3.12051e-10 7.10794e-10 4.37719e-10 1.79646e-10 4.10913e-10 2.53201e-10 -7.73091 5.47488 -0.417314 1.79651e-10 4.10914e-10 2.53194e-10 -2.90554 0.965183 -0.102902 1.79643e-10 4.10912e-10 2.53196e-10 -10.2786 0.731801 -0.0259123 1.79656e-10 4.10913e-10 2.53191e-10 -2.22167 -0.733487 0.20892 -2.03217e-16 0.0 -3.88251e-19 1.48798 -30.6781 9.0878 -0.0110333 8.25009 0.177192 -2.52133 -15.7482 -6.6156 2.03217e-16 0.0 3.88251e-19 -4.47658 -30.6703 -13.7291 0.0214005 7.28142 -0.080001 0.859563 -2.94143 3.32641
